<?xml version="1.0" standalone="no"?>
<!DOCTYPE svg PUBLIC "-//W3C//DTD SVG 20010904//EN"
 "http://www.w3.org/TR/2001/REC-SVG-20010904/DTD/svg10.dtd">
<svg version="1.0" xmlns="http://www.w3.org/2000/svg"
 width="32.000000pt" height="32.000000pt" viewBox="0 0 32.000000 32.000000"
 preserveAspectRatio="xMidYMid meet">

<g transform="translate(0.000000,32.000000) scale(0.100000,-0.100000)"
fill="#000000" stroke="none">
<path d="M106 164 c-25 -80 -28 -111 -7 -88 7 7 19 41 56 162 3 6 -2 12 -9 12
-8 0 -24 -34 -40 -86z"/>
<path d="M170 225 c0 -8 7 -15 15 -15 8 0 15 -9 15 -20 0 -14 -7 -20 -24 -20
-36 0 -36 -18 -1 -56 44 -47 71 -47 40 0 -14 21 -14 24 0 36 18 15 20 61 3 78
-17 17 -48 15 -48 -3z"/>
<path d="M38 169 c-22 -12 -23 -35 -2 -43 27 -10 37 -7 25 8 -8 10 -9 16 -1
21 12 7 14 25 3 25 -5 0 -16 -5 -25 -11z"/>
<path d="M250 171 c0 -6 5 -13 10 -16 8 -5 7 -11 -1 -21 -12 -15 -2 -18 25 -8
22 8 20 31 -3 44 -24 12 -31 13 -31 1z"/>
</g>
</svg>
